<?xml version="1.0" standalone="no"?>
<!DOCTYPE svg PUBLIC "-//W3C//DTD SVG 20010904//EN"
 "http://www.w3.org/TR/2001/REC-SVG-20010904/DTD/svg10.dtd">
<svg version="1.0" xmlns="http://www.w3.org/2000/svg"
 width="1081.000000pt" height="1081.000000pt" viewBox="0 0 1081.000000 1081.000000"
 preserveAspectRatio="xMidYMid meet">
<metadata>
Created by potrace 1.11, written by Peter Selinger 2001-2013
</metadata>
<g transform="translate(0.000000,1081.000000) scale(0.100000,-0.100000)"
fill="#000000" stroke="none">
<path d="M4493 10658 c-36 -40 -95 -158 -99 -197 -4 -36 13 -72 56 -124 55
-65 63 -90 62 -192 -1 -111 -14 -406 -27 -585 -11 -154 -13 -176 -14 -202 -2
-42 -15 -34 -45 30 -35 75 -36 81 -4 191 12 41 12 45 -10 59 -25 16 -31 48 -7
38 27 -10 16 5 -42 63 -51 49 -62 55 -96 55 -42 -2 -83 -38 -118 -106 -43 -83
-31 -132 53 -221 l55 -58 -4 -77 c-1 -42 -4 -139 -5 -214 -2 -83 -7 -138 -13
-139 -30 -4 -61 -4 -69 0 -6 3 -19 5 -30 6 -51 5 -93 18 -172 55 -72 33 -167
90 -184 109 -3 3 -37 27 -75 53 -78 53 -78 53 -226 205 -124 127 -158 171
-153 198 14 73 11 157 -7 192 -20 41 -70 80 -109 87 -14 2 -24 9 -23 15 2 6
-8 18 -21 26 -32 21 -87 11 -117 -21 -28 -29 -47 -118 -44 -196 3 -61 26 -101
75 -131 25 -16 45 -31 87 -64 21 -18 31 -62 38 -164 1 -20 5 -41 9 -47 17 -28
27 -454 14 -577 -18 -166 -42 -263 -90 -363 -44 -92 -40 -92 -123 -29 -22 17
-41 32 -43 33 -2 1 -5 34 -7 73 -3 39 -12 85 -20 101 -17 34 -73 73 -92 65 -7
-2 -14 -1 -17 4 -6 8 -53 6 -85 -4 -12 -4 -35 -25 -52 -47 -57 -79 -27 -189
62 -224 21 -9 39 -20 39 -24 0 -4 11 -11 24 -14 25 -6 52 -65 62 -136 4 -31 1
-38 -24 -52 -31 -19 -29 -18 -152 -20 -96 -1 -158 6 -245 28 -33 9 -71 18 -84
20 -14 3 -28 7 -33 10 -4 3 -16 7 -25 9 -41 10 -166 56 -200 75 -21 11 -42 20
-47 20 -9 0 -317 151 -326 160 -3 3 -22 14 -42 24 -30 16 -39 28 -48 65 -15
59 -44 120 -72 152 -41 46 -62 52 -198 63 -35 3 -99 -28 -101 -49 0 -5 -2 -19
-4 -29 -5 -25 22 -130 47 -183 13 -28 28 -43 45 -48 14 -3 33 -15 42 -25 11
-13 32 -21 65 -23 38 -3 55 -10 77 -32 36 -35 126 -218 184 -370 14 -38 35
-92 45 -120 11 -27 22 -63 24 -80 3 -16 12 -64 20 -105 17 -86 16 -280 -2
-322 l-11 -27 -70 24 c-39 14 -76 25 -83 25 -7 0 -24 6 -38 13 -14 7 -47 19
-75 27 -27 7 -56 17 -63 23 -6 5 -12 6 -12 2 0 -4 -7 -2 -15 5 -9 7 -25 13
-37 14 -14 1 -22 9 -25 25 -6 42 -56 123 -91 146 -26 18 -43 22 -89 19 -139
-9 -202 -62 -166 -142 9 -20 17 -39 17 -42 4 -16 32 -57 45 -68 49 -39 64 -45
138 -47 l76 -3 59 -62 c50 -53 68 -80 55 -80 -2 0 -27 7 -57 16 -29 9 -61 17
-69 19 -37 8 -101 25 -181 50 -47 15 -112 34 -145 44 -33 10 -67 20 -75 23 -8
3 -80 27 -159 52 -158 52 -219 79 -239 108 -7 10 -18 15 -24 12 -6 -4 -18 3
-27 15 l-17 22 -43 -41 c-39 -38 -47 -41 -82 -37 -49 6 -69 -11 -69 -59 0 -45
18 -51 85 -28 60 20 69 17 70 -24 0 -20 5 -27 20 -28 51 -1 140 -48 193 -101
7 -7 17 -13 21 -13 5 0 19 -10 32 -23 13 -12 56 -48 95 -80 39 -31 123 -109
187 -174 107 -107 137 -144 105 -130 -77 34 -168 69 -233 91 -82 27 -197 74
-317 129 -48 22 -68 37 -72 53 -5 17 -18 26 -45 34 -37 10 -42 8 -72 -20 -32
-29 -67 -38 -83 -22 -24 23 -56 -11 -62 -64 -4 -41 12 -52 78 -51 26 0 53 -5
61 -11 12 -11 68 -9 86 3 16 9 238 -82 336 -137 52 -30 215 -108 225 -108 5 0
10 -4 10 -10 0 -5 7 -10 15 -10 8 0 15 -4 15 -8 0 -5 12 -14 26 -21 14 -6 74
-41 132 -78 59 -37 128 -75 155 -84 26 -9 62 -29 80 -46 18 -16 64 -56 102
-88 95 -80 104 -91 99 -123 -10 -60 -10 -78 -1 -111 15 -56 71 -101 158 -127
27 -8 49 -18 50 -22 0 -4 2 -15 4 -24 2 -10 0 -18 -4 -18 -6 0 -10 -17 -13
-57 -1 -7 -4 -13 -8 -13 -4 0 -7 -6 -8 -12 0 -12 -3 -23 -18 -80 -3 -13 -7
-32 -9 -43 -2 -11 -4 -21 -5 -22 -2 -2 -3 -6 -5 -10 -1 -5 -5 -19 -9 -33 -4
-14 -9 -38 -11 -55 -2 -16 -5 -30 -6 -30 -1 0 -3 -9 -5 -20 -1 -11 -9 -54 -18
-95 -8 -41 -12 -78 -10 -82 3 -4 0 -8 -6 -8 -6 0 -9 -3 -7 -7 3 -5 1 -33 -4
-63 -6 -30 -11 -73 -13 -96 -1 -22 -5 -45 -8 -50 -2 -5 -4 -16 -3 -24 1 -8 -2
-25 -7 -37 -5 -15 -4 -23 3 -23 7 0 8 -5 2 -12 -5 -7 -9 -30 -8 -50 0 -21 -2
-38 -5 -38 -3 0 -5 -37 -5 -83 1 -45 -3 -88 -8 -94 -6 -8 -6 -13 0 -13 5 0 10
-7 10 -15 0 -8 -3 -15 -6 -15 -3 0 -6 -13 -6 -30 0 -16 4 -30 8 -30 5 0 5 -5
1 -12 -10 -15 -9 -162 0 -177 4 -6 2 -11 -4 -11 -6 0 -8 -5 -5 -11 4 -5 9 -54
12 -107 6 -126 10 -187 13 -187 1 0 4 -20 5 -45 2 -25 6 -63 9 -85 3 -22 9
-65 12 -95 4 -30 11 -63 16 -74 8 -14 7 -17 -3 -11 -8 6 -10 4 -3 -6 9 -15 13
-30 17 -71 1 -16 4 -28 7 -28 3 0 6 -12 7 -28 4 -41 8 -56 17 -71 7 -11 6 -12
-5 -6 -12 8 -12 6 0 -8 7 -9 10 -17 6 -17 -4 0 -3 -6 2 -12 6 -7 9 -21 8 -30
-2 -10 0 -18 5 -18 4 0 8 -10 8 -22 2 -33 7 -56 15 -64 4 -4 7 -17 7 -29 0
-12 3 -25 7 -29 4 -3 8 -16 10 -29 4 -29 9 -48 16 -67 14 -39 19 -57 24 -80 2
-13 7 -27 11 -30 6 -4 9 -15 15 -55 1 -5 5 -12 8 -15 4 -3 9 -16 10 -30 2 -14
7 -28 12 -31 4 -3 9 -15 12 -27 2 -11 9 -30 15 -41 6 -12 8 -21 4 -21 -4 0 1
-9 11 -20 11 -13 14 -20 6 -20 -8 0 -7 -5 3 -16 9 -8 16 -19 16 -24 0 -5 10
-30 22 -57 12 -26 20 -52 19 -56 -1 -4 6 -15 14 -23 8 -9 13 -20 10 -25 -4 -5
-1 -9 5 -9 6 0 8 -4 5 -10 -3 -5 -1 -10 4 -10 6 0 10 -3 9 -7 -2 -12 64 -148
73 -151 5 -2 7 -8 3 -13 -3 -5 0 -9 6 -9 6 0 9 -4 5 -9 -3 -5 1 -16 9 -24 8
-8 12 -17 9 -21 -4 -3 0 -6 7 -6 7 0 11 -3 7 -6 -3 -4 1 -13 9 -21 8 -8 12
-18 9 -23 -3 -4 2 -11 11 -14 9 -4 14 -9 11 -13 -4 -3 3 -17 13 -31 11 -13 20
-30 20 -37 0 -7 7 -18 15 -25 9 -7 13 -15 11 -18 -3 -2 0 -10 7 -18 30 -33 35
-42 30 -48 -4 -3 -2 -6 3 -6 5 0 18 -17 29 -38 11 -20 23 -39 26 -42 3 -3 18
-24 33 -48 14 -23 31 -42 37 -42 5 0 7 -5 4 -11 -4 -5 2 -18 14 -28 11 -10 18
-21 15 -24 -3 -3 3 -10 14 -16 10 -6 25 -24 32 -40 6 -16 18 -32 26 -35 8 -3
14 -10 14 -16 0 -12 15 -32 42 -57 9 -9 15 -20 12 -24 -2 -4 5 -10 16 -14 11
-4 18 -10 15 -15 -3 -4 2 -10 10 -14 8 -3 15 -13 15 -21 0 -9 4 -13 10 -10 6
3 10 2 10 -4 0 -8 17 -30 89 -107 11 -12 17 -25 14 -28 -4 -3 2 -6 12 -6 10 0
16 -2 13 -6 -7 -7 45 -61 55 -56 4 2 7 -4 7 -12 0 -9 5 -16 11 -16 5 0 7 -5 4
-10 -4 -6 -2 -9 3 -8 4 2 43 -32 86 -74 43 -43 82 -78 88 -78 6 0 8 -3 5 -7
-4 -3 5 -15 20 -25 16 -10 24 -18 19 -18 -5 0 9 -12 30 -26 21 -15 46 -35 55
-45 9 -10 18 -16 21 -14 2 3 11 -6 18 -20 7 -14 18 -25 24 -25 6 0 25 -13 41
-28 17 -15 46 -39 65 -52 19 -13 41 -30 48 -37 7 -7 26 -20 42 -30 17 -9 30
-21 30 -25 0 -4 7 -8 15 -8 7 0 18 -6 22 -13 10 -16 149 -107 163 -107 6 0 8
-4 5 -10 -3 -5 -1 -10 6 -10 14 0 112 -61 117 -72 2 -5 9 -8 16 -8 7 0 30 -11
50 -25 20 -13 36 -22 36 -18 0 3 6 1 13 -5 28 -23 317 -172 342 -176 5 -1 35
-14 65 -28 56 -26 81 -36 90 -35 3 0 16 -6 30 -13 14 -8 27 -15 30 -15 3 0 19
-5 35 -12 51 -19 70 -26 80 -29 6 -1 34 -12 63 -23 29 -11 56 -20 60 -22 21
-5 31 -9 76 -23 27 -9 52 -13 57 -10 5 3 9 0 9 -7 0 -7 3 -9 6 -6 4 3 15 2 26
-4 11 -6 29 -12 41 -14 47 -9 122 -28 131 -33 5 -3 21 -6 35 -8 28 -3 62 -10
89 -18 24 -8 305 -53 377 -62 33 -3 71 -8 85 -10 191 -25 717 -24 935 1 155
18 181 22 290 40 17 3 41 7 55 10 14 3 36 7 50 10 14 3 36 7 50 10 14 3 39 8
55 10 17 3 38 8 47 11 9 3 25 7 35 9 60 13 222 59 303 86 52 17 102 33 110 34
8 2 16 4 18 5 1 2 5 3 10 5 9 2 25 8 122 46 41 16 81 29 88 29 6 0 12 5 12 10
0 6 3 9 8 8 7 -2 24 5 137 55 66 29 319 158 325 166 3 3 23 15 45 26 22 11 43
24 47 30 4 5 8 7 8 3 0 -9 262 160 271 174 3 5 9 9 13 9 8 -2 80 51 84 61 2 5
10 8 17 8 8 0 18 6 22 13 8 12 77 66 90 70 4 1 17 11 28 22 12 11 43 39 71 62
27 22 59 51 72 62 12 12 22 20 22 17 0 -3 27 22 60 54 33 33 64 60 70 60 5 0
10 4 10 9 0 6 47 57 105 114 57 57 102 107 98 111 -3 3 2 6 12 6 10 0 16 2 13
5 -3 3 14 26 38 50 24 25 40 45 37 45 -3 0 10 15 29 34 20 19 33 37 30 40 -3
3 0 6 6 6 6 0 18 12 26 28 8 15 28 42 45 59 16 18 28 33 25 33 -2 0 4 9 13 19
32 36 43 50 43 59 0 5 9 17 20 27 11 10 20 24 20 32 0 7 4 13 8 13 5 0 15 12
23 27 8 16 24 39 36 52 12 14 20 28 17 32 -2 4 4 14 14 21 19 12 22 18 22 36
0 5 9 18 20 30 12 12 18 22 15 22 -3 0 3 10 14 22 11 11 18 25 15 29 -2 4 0
10 5 14 5 3 16 18 24 33 7 15 27 52 44 82 48 86 118 224 121 240 2 7 11 20 20
28 9 7 12 11 5 7 -8 -4 -8 3 2 22 8 15 15 34 15 41 0 6 5 12 10 12 6 0 9 3 8
8 -1 4 5 21 12 37 7 17 14 32 15 35 1 3 7 19 14 35 26 62 40 105 33 105 -4 0
-2 4 3 8 15 11 36 62 30 73 -4 5 -2 9 3 9 8 0 14 19 23 68 1 4 10 24 20 44 14
28 16 38 7 38 -8 0 -9 3 -3 8 6 4 16 20 23 35 10 23 10 27 0 21 -10 -6 -10 -4
-2 7 15 19 44 120 38 131 -3 4 0 8 6 8 6 0 10 6 9 13 -2 6 3 32 10 56 7 25 14
56 16 70 2 14 4 26 5 26 2 0 10 37 12 58 1 9 6 17 10 17 11 0 6 23 -7 32 -6 5
-5 8 4 8 7 0 11 6 7 15 -3 8 -2 15 2 15 5 0 9 10 10 23 3 37 10 92 12 92 3 0
10 50 15 105 2 25 4 45 5 45 1 0 3 12 4 28 2 15 6 30 9 33 4 4 2 14 -3 24 -5
10 -6 20 -3 24 20 20 29 272 24 681 -1 11 -1 29 -2 40 0 11 -1 39 -2 62 -1 24
-6 43 -11 43 -5 0 -3 7 4 15 7 8 8 15 3 15 -5 0 -9 15 -8 32 1 18 0 37 -3 43
-3 5 -7 26 -9 47 -6 70 -11 123 -13 123 -1 0 -3 14 -5 30 -2 17 -6 44 -9 60
-3 17 -9 48 -12 70 -3 22 -11 43 -18 47 -8 6 -7 8 2 8 7 0 11 4 8 8 -3 5 -7
19 -9 33 -3 13 -19 83 -37 154 -18 72 -34 137 -35 145 -2 8 -4 15 -5 15 -1 0
-3 8 -6 18 -6 26 -10 41 -17 57 -20 54 -34 109 -29 114 3 3 0 6 -6 6 -7 0 -12
9 -12 20 0 10 -5 32 -11 47 -25 62 -54 137 -54 143 -1 3 -9 22 -18 44 -9 21
-17 40 -17 41 0 2 -10 25 -22 52 -12 26 -22 50 -24 53 -4 11 -16 50 -17 57 0
4 -9 16 -18 27 -10 10 -21 32 -24 47 -4 16 -11 29 -16 29 -5 0 -8 3 -7 8 3 12
-29 79 -41 86 -6 4 -9 12 -6 17 4 5 2 9 -3 9 -5 0 -12 9 -15 20 -8 31 -9 33
-29 54 -10 11 -18 27 -18 37 0 9 -7 22 -15 29 -8 6 -17 21 -21 33 -4 11 -22
42 -40 69 -19 26 -35 53 -36 60 -2 7 -11 19 -21 26 -9 7 -15 18 -12 23 4 5 -1
12 -9 15 -9 3 -13 10 -10 15 3 5 0 9 -5 9 -6 0 -11 7 -11 15 0 8 -4 15 -10 15
-5 0 -10 7 -10 15 0 9 -7 18 -15 21 -8 4 -15 12 -15 20 0 8 -5 14 -11 14 -5 0
-7 5 -4 10 3 6 2 10 -4 10 -6 0 -17 12 -25 28 -8 15 -24 37 -36 50 -11 12 -17
22 -13 22 4 0 -3 7 -15 16 -12 8 -22 21 -22 27 0 7 -8 20 -17 28 -25 22 -63
68 -63 75 0 4 -12 17 -27 30 -16 13 -24 24 -20 24 5 0 2 7 -7 15 -8 8 -20 15
-27 15 -7 0 -10 3 -6 6 6 7 -8 24 -90 111 -35 36 -63 69 -63 74 0 5 -4 9 -9 9
-5 0 -47 38 -94 85 -46 46 -87 82 -91 78 -3 -3 -6 1 -6 10 0 9 -4 17 -8 17 -4
0 -27 18 -51 40 -23 22 -44 40 -46 40 -3 0 -17 12 -33 28 -33 31 -48 43 -114
93 -26 20 -44 40 -40 44 4 5 2 5 -5 1 -6 -3 -21 4 -32 16 -12 12 -21 18 -21
13 0 -4 -10 3 -23 17 -24 26 -55 43 -72 39 -5 -2 -7 1 -3 5 8 7 -33 42 -41 35
-2 -1 -7 1 -10 6 -16 21 -60 55 -76 57 -9 1 -20 7 -23 12 -4 5 -24 18 -44 29
-21 11 -38 23 -38 27 0 5 -5 8 -11 8 -6 0 -17 7 -26 15 -8 8 -19 13 -24 10 -5
-4 -9 -3 -9 2 0 4 -15 14 -32 22 -18 8 -48 25 -65 39 -18 13 -33 21 -33 18 0
-4 -12 1 -27 12 -38 25 -341 172 -357 172 -3 0 -29 11 -58 24 -29 14 -82 35
-118 47 -36 12 -69 25 -75 29 -5 4 -32 13 -60 20 -27 7 -54 16 -60 19 -5 3
-14 6 -20 7 -5 2 -48 14 -95 28 -47 15 -96 29 -110 32 -28 6 -39 9 -60 17 -8
3 -44 11 -80 18 -36 6 -69 15 -75 18 -5 3 -17 6 -25 7 -8 2 -31 4 -51 7 -20 2
-41 7 -45 10 -5 2 -31 7 -59 11 -27 3 -60 8 -71 10 -42 8 -97 16 -153 22 -31
3 -72 7 -91 10 -212 25 -714 25 -925 -1 -22 -2 -62 -7 -90 -11 -27 -3 -61 -7
-75 -9 -14 -3 -43 -7 -65 -10 -22 -2 -53 -7 -70 -11 -16 -3 -41 -7 -55 -9 -14
-2 -25 -4 -25 -5 0 -1 -12 -4 -27 -6 -24 -4 -28 0 -44 48 -10 29 -19 75 -20
102 -4 70 -11 117 -30 188 -16 65 -18 75 -29 142 -3 21 -7 48 -10 60 -7 30
-15 103 -19 161 -2 28 -6 68 -10 90 -5 36 -15 160 -20 255 -2 55 12 131 28
149 10 11 12 21 6 31 -5 8 -7 23 -4 32 4 13 1 16 -9 12 -11 -4 -13 1 -10 19 4
21 1 23 -40 26 -37 1 -50 -3 -71 -24 -26 -26 -26 -55 0 -55 19 0 18 -17 -2
-28 -13 -7 -15 -17 -10 -38 4 -16 9 -58 11 -94 1 -36 6 -94 10 -130 10 -87 13
-203 6 -215 -8 -15 -9 -147 -1 -170 4 -11 4 -29 0 -40 -4 -11 -4 -24 0 -30 4
-5 4 -18 1 -29 -5 -14 -21 10 -63 95 -30 63 -61 130 -68 149 -7 19 -19 49 -26
65 -48 111 -70 173 -105 293 -56 187 -54 177 -29 199 18 18 19 21 5 27 -14 5
-13 10 8 38 64 86 48 176 -42 245 -23 18 -42 36 -42 40 -4 47 -71 59 -106 21z"/>
</g>
</svg>
